# xmcd
#
# Track frame offsets: 
#        150
#        13194
#        29053
#        39251
#        50679
#        68697
#        82215
#        89647
#        106797
#        120474
#        139660
#        150214
#        166976
#        179640
#        192635
#        206739
#        220907
#        233936
#        243736
#        255949
#
# Disc length: 3550 seconds
#
# Revision: 0
# Processed by: cddbd v1.5.2PL0 Copyright (c) Steve Scherf et al.
# Submitted via: ExactAudioCopy v0.99pb4
#
DISCID=1f0ddc14
DTITLE=Waylon Jennings w. Friends - Wanted! The Outlaws
DYEAR=1976
DGENRE=Country
TTITLE0=My Heroes Have Always Been Cowboys
TTITLE1=Honky Tonk Heroes
TTITLE2=I'm Looking for Blue Eyes
TTITLE3=You Mean to Say
TTITLE4=Suspicious Minds
TTITLE5=Good Hearted Woman [Version]
TTITLE6=Heaven or Hell
TTITLE7=Me and Paul
TTITLE8=Yesterday's Wine
TTITLE9=T for Texas (Blue Yodel No. 1)
TTITLE10=Put Another Log on the Fire
TTITLE11=Slow Movin' Outlaw
TTITLE12=I'm a Ramblin' Man
TTITLE13=If She's Where You Like Livin' 
TTITLE14=It's Not Easy
TTITLE15=Why You Been Gone So Long
TTITLE16=Under Your Spell Again
TTITLE17=I Ain't the One
TTITLE18=You Left Me a Long, Long Time Ago
TTITLE19=Healing Hands of Time
EXTD=
EXTT0=
EXTT1=
EXTT2=
EXTT3=
EXTT4=
EXTT5=
EXTT6=
EXTT7=
EXTT8=
EXTT9=
EXTT10=
EXTT11=
EXTT12=
EXTT13=
EXTT14=
EXTT15=
EXTT16=
EXTT17=
EXTT18=
EXTT19=
PLAYORDER=
